# xmcd
# 
# Track frame offsets:
#     150
#     32552
#     65910
#     93705
#     120085
#     146430
# 
# Disc length: 2497
# 
# Revision: 4
# Processed by: cddbd v1.5.2PL0 Copyright (c) Steve Scherf et al.
# Submitted via: fre:ac v1.0.27
# 
DISCID=4d09bf06
DTITLE=TOWER_OF_POWER - East_Bay_Grease
DYEAR=1970
DGENRE=R&B+Funk
TTITLE0=Knock Yourself Out
TTITLE1=Social Lubrication
TTITLE2=The Price
TTITLE3=Back On The Streets Again
TTITLE4=The Skunk, The Goose, And The Fly
TTITLE5=Sparkling In The Sand
EXTD=(C) 1970 and 1992\nLabel - Atlantic Recording Corp. (A Time Warner Company]\n\nAll Selections Written by Emilio Castillo, except "Sparkling In The Sand" by Emilio Castillo, Stephen Kupka and Lawrence Lopez.\n\nTower of Power:\nRufus Miller - lead vocals 
EXTD=(except on "Sparkling In The Sand"]\nEmilio Castillo - alto sax, vocals\nDavid Garibaldi - drums\nGreg Adams - 1st trumpet\nSteve Kupka - baritone sax, vocals\nSkip Mesquite - tenor sax, flute, vocals\nDavid Padron - 2nd trumpet\nFrank Prestia - bass
EXTD=\nRick Stevens - vocals, lead vocal on "Sparkling In The Sand"\nWilly Fulton - guitar, vocals\n\nMic Gillette - trumpet, trombone, fluegelhorn solo on "Sparkling In The Sand"\nKen Balzell - trumpet
EXTT0=
EXTT1=
EXTT2=
EXTT3=
EXTT4=
EXTT5=
PLAYORDER=
